<?xml version="1.0" encoding="UTF-8"?>
<svg width="231px" height="255px" viewBox="0 0 231 255" version="1.1" xmlns="http://www.w3.org/2000/svg" xmlns:xlink="http://www.w3.org/1999/xlink">
    <title>grid</title>
    <defs></defs>
    <g id="Page-1" stroke="none" stroke-width="1" fill="none" fill-rule="evenodd">
        <g id="grid" fill="#E1E3E6" fill-rule="nonzero">
            <rect id="Rectangle-path" x="0.162" y="0.779" width="65.374" height="65.374" rx="3"></rect>
            <rect id="Rectangle-path" x="1.565" y="101.448" width="62.8" height="15" rx="5"></rect>
            <rect id="Rectangle-path" x="82.478" y="0.779" width="65.374" height="65.374" rx="3"></rect>
            <rect id="Rectangle-path" x="83.882" y="101.448" width="62.8" height="15" rx="5"></rect>
            <rect id="Rectangle-path" x="164.788" y="0.779" width="65.374" height="65.374" rx="3"></rect>
            <rect id="Rectangle-path" x="166.192" y="101.448" width="62.8" height="15" rx="5"></rect>
            <rect id="Rectangle-path" x="1.565" y="80.448" width="62.8" height="15" rx="5"></rect>
            <rect id="Rectangle-path" x="83.882" y="80.448" width="62.8" height="15" rx="5"></rect>
            <rect id="Rectangle-path" x="166.192" y="80.448" width="62.8" height="15" rx="5"></rect>
            <rect id="Rectangle-path" x="0.162" y="138.779" width="65.374" height="65.374" rx="3"></rect>
            <rect id="Rectangle-path" x="1.565" y="239.448" width="62.8" height="15" rx="5"></rect>
            <rect id="Rectangle-path" x="82.478" y="138.779" width="65.374" height="65.374" rx="3"></rect>
            <rect id="Rectangle-path" x="83.882" y="239.448" width="62.8" height="15" rx="5"></rect>
            <rect id="Rectangle-path" x="164.788" y="138.779" width="65.374" height="65.374" rx="3"></rect>
            <rect id="Rectangle-path" x="166.192" y="239.448" width="62.8" height="15" rx="5"></rect>
            <rect id="Rectangle-path" x="1.565" y="218.448" width="62.8" height="15" rx="5"></rect>
            <rect id="Rectangle-path" x="83.882" y="218.448" width="62.8" height="15" rx="5"></rect>
            <rect id="Rectangle-path" x="166.192" y="218.448" width="62.8" height="15" rx="5"></rect>
        </g>
    </g>
</svg>